<?xml version="1.0" encoding="UTF-8" standalone="no"?>
<!-- Created with Inkscape (http://www.inkscape.org/) -->

<svg
   width="100mm"
   height="100mm"
   viewBox="0 0 100 100"
   version="1.1"
   id="svg1"
   inkscape:version="1.4.3 (0d15f75, 2025-12-25)"
   sodipodi:docname="favicon.svg"
   xmlns:inkscape="http://www.inkscape.org/namespaces/inkscape"
   xmlns:sodipodi="http://sodipodi.sourceforge.net/DTD/sodipodi-0.dtd"
   xmlns="http://www.w3.org/2000/svg"
   xmlns:svg="http://www.w3.org/2000/svg">
  <sodipodi:namedview
     id="namedview1"
     pagecolor="#ffffff"
     bordercolor="#000000"
     borderopacity="0.25"
     inkscape:showpageshadow="2"
     inkscape:pageopacity="0.0"
     inkscape:pagecheckerboard="0"
     inkscape:deskcolor="#d1d1d1"
     inkscape:document-units="mm"
     showguides="true"
     inkscape:zoom="1.6800613"
     inkscape:cx="162.19646"
     inkscape:cy="219.03962"
     inkscape:window-width="1710"
     inkscape:window-height="1045"
     inkscape:window-x="0"
     inkscape:window-y="39"
     inkscape:window-maximized="1"
     inkscape:current-layer="layer1">
    <sodipodi:guide
       position="0,89.999999"
       orientation="0,1"
       id="guide1"
       inkscape:locked="false"
       inkscape:label=""
       inkscape:color="rgb(0,134,229)" />
    <sodipodi:guide
       position="9.9999999,99.999999"
       orientation="-1,0"
       id="guide2"
       inkscape:locked="false"
       inkscape:label=""
       inkscape:color="rgb(0,134,229)" />
    <sodipodi:guide
       position="89.999999,99.999999"
       orientation="-1,0"
       id="guide3"
       inkscape:locked="false"
       inkscape:label=""
       inkscape:color="rgb(0,134,229)" />
    <sodipodi:guide
       position="0,9.9999999"
       orientation="0,1"
       id="guide4"
       inkscape:locked="false"
       inkscape:label=""
       inkscape:color="rgb(0,134,229)" />
  </sodipodi:namedview>
  <defs
     id="defs1" />
  <g
     inkscape:label="Layer 1"
     inkscape:groupmode="layer"
     id="layer1">
    <g
       id="g13"
       transform="matrix(1.4593327,0,0,1.6715311,-10.404938,-2.5631241)">
      <path
         style="font-stretch:condensed;font-size:50.8px;font-family:'Roboto Condensed';-inkscape-font-specification:'Roboto Condensed,  Condensed';text-align:center;text-anchor:middle;stroke-width:0.244"
         d="M 68.801952,13.884376 V 50 H 64.23789 V 13.884376 Z"
         id="path12" />
      <path
         style="font-stretch:condensed;font-size:50.8px;font-family:'Roboto Condensed';-inkscape-font-specification:'Roboto Condensed,  Condensed';text-align:center;text-anchor:middle;stroke-width:0.244"
         d="m 52.604491,50 -9.872265,-32.91582 -0.04961,-3.199804 h 2.951757 L 57.267773,50 Z"
         id="path8" />
      <path
         style="font-stretch:condensed;font-size:50.8px;font-family:'Roboto Condensed';-inkscape-font-specification:'Roboto Condensed,  Condensed';text-align:center;text-anchor:middle;stroke-width:0.244"
         d="m 52.604491,36.630274 v 3.91914 h -17.41289 v -3.91914 z"
         id="path9" />
      <path
         style="font-stretch:condensed;font-size:50.8px;font-family:'Roboto Condensed';-inkscape-font-specification:'Roboto Condensed,  Condensed';text-align:center;text-anchor:middle;stroke-width:0.244"
         d="M 44.617382,17.08418 34.745117,50 H 30.081835 L 41.715234,13.884376 h 2.926953 z"
         id="path7" />
      <path
         style="font-stretch:condensed;font-size:50.8px;font-family:'Roboto Condensed';-inkscape-font-specification:'Roboto Condensed,  Condensed';text-align:center;text-anchor:middle;stroke-width:0.244"
         d="M 67.140038,17.08418 57.267773,50 H 52.604491 L 64.23789,13.884376 h 2.926953 z"
         id="path7-1" />
      <path
         style="font-stretch:condensed;font-size:50.8px;font-family:'Roboto Condensed';-inkscape-font-specification:'Roboto Condensed,  Condensed';text-align:center;text-anchor:middle;stroke-width:0.244"
         d="m 31.568899,40.375781 q 0,-1.265039 -0.297657,-2.232422 -0.297656,-0.992187 -1.041797,-1.785937 -0.74414,-0.79375 -2.083593,-1.513086 Q 26.806399,34.125 24.74761,33.380859 22.515188,32.587109 20.704446,31.619727 18.893703,30.627539 17.603859,29.3625 q -1.265039,-1.265039 -1.95957,-2.902148 -0.694531,-1.63711 -0.694531,-3.745508 0,-2.108399 0.719336,-3.894336 0.74414,-1.785937 2.083594,-3.100586 1.364257,-1.339453 3.274219,-2.083594 1.90996,-0.74414 4.266406,-0.74414 3.522265,0 5.92832,1.562695 2.430859,1.537891 3.671094,4.043164 1.240234,2.480469 1.240234,5.308203 h -4.564062 q 0,-2.033984 -0.669727,-3.596679 -0.644922,-1.5875 -2.033984,-2.480469 -1.364258,-0.917774 -3.571875,-0.917774 -1.984375,0 -3.274219,0.768946 -1.265039,0.768945 -1.885156,2.083593 -0.595313,1.314649 -0.595313,3.001368 0,1.141015 0.396875,2.083593 0.396875,0.917774 1.21543,1.711524 0.843359,0.79375 2.083594,1.463476 1.265039,0.669727 2.976562,1.289844 2.654102,0.868164 4.539258,1.934766 1.885156,1.066601 3.075781,2.406054 1.190625,1.314649 1.736328,3.001367 0.570508,1.661914 0.570508,3.770313 0,2.207617 -0.744141,3.993554 -0.719336,1.785938 -2.108398,3.050977 -1.389063,1.265039 -3.348633,1.95957 Q 27.972219,50 25.516555,50 q -2.133203,0 -4.191992,-0.694531 -2.033985,-0.694532 -3.695899,-2.083594 -1.661914,-1.389063 -2.654101,-3.423047 -0.992188,-2.058789 -0.992188,-4.7625 h 4.564063 q 0,1.860352 0.545703,3.199805 0.545703,1.314648 1.513086,2.182812 0.967383,0.868164 2.207617,1.289844 1.265039,0.396875 2.703711,0.396875 1.984375,0 3.323828,-0.694531 1.364258,-0.694532 2.033984,-1.984375 0.694532,-1.289844 0.694532,-3.050977 z"
         id="text4" />
    </g>
  </g>
</svg>
